<svg width="13" height="13" viewBox="0 0 13 13" fill="none" xmlns="http://www.w3.org/2000/svg">
<path d="M0.824219 6.49965C0.824219 6.38409 0.86033 6.2902 0.932552 6.21798C1.00477 6.14576 1.09866 6.10965 1.21422 6.10965H10.7909L8.23422 3.55298C8.14755 3.46632 8.10422 3.3652 8.10422 3.24965C8.10422 3.13409 8.14755 3.0402 8.23422 2.96798C8.32089 2.89576 8.422 2.85965 8.53755 2.85965C8.65311 2.85965 8.75422 2.88854 8.84089 2.94632L12.0909 6.19632C12.1487 6.28298 12.1776 6.38409 12.1776 6.49965C12.1776 6.6152 12.1487 6.71632 12.0909 6.80298L8.84089 10.053C8.75422 10.1108 8.65311 10.1396 8.53755 10.1396C8.422 10.1396 8.32089 10.1035 8.23422 10.0313C8.14755 9.95909 8.10422 9.8652 8.10422 9.74965C8.10422 9.63409 8.14755 9.53298 8.23422 9.44632L10.7909 6.88965H1.21422C1.09866 6.88965 1.00477 6.85354 0.932552 6.78132C0.86033 6.70909 0.824219 6.6152 0.824219 6.49965Z" fill="black"/>
</svg>
