<svg width="23" height="23" viewBox="0 0 23 23" fill="none" xmlns="http://www.w3.org/2000/svg">
<g clip-path="url(#clip0_8595_10351)">
<path d="M11.4988 1.89333C12.281 1.89333 12.941 2.16222 13.4788 2.7C14.0166 3.23778 14.2855 3.87333 14.2855 4.60667V10.1067H8.78547V4.60667C8.78547 3.87333 9.04214 3.23778 9.55547 2.7C10.0688 2.16222 10.7166 1.89333 11.4988 1.89333ZM15.6055 10.1067V4.60667C15.6055 3.48222 15.2021 2.51667 14.3955 1.71C13.5888 0.903334 12.6232 0.5 11.4988 0.5C10.3744 0.5 9.4088 0.903334 8.60214 1.71C7.79547 2.51667 7.39214 3.48222 7.39214 4.60667V10.1067C6.60991 10.1067 5.94991 10.3756 5.41214 10.9133C4.87436 11.4511 4.60547 12.1111 4.60547 12.8933V19.7133C4.60547 20.4956 4.87436 21.1556 5.41214 21.6933C5.94991 22.2311 6.60991 22.5 7.39214 22.5H15.6055C16.3877 22.5 17.0477 22.2311 17.5855 21.6933C18.1232 21.1556 18.3921 20.4956 18.3921 19.7133V12.8933C18.3921 12.1111 18.1232 11.4511 17.5855 10.9133C17.0477 10.3756 16.3877 10.1067 15.6055 10.1067ZM7.39214 11.5H15.6055C15.9966 11.5 16.3266 11.6344 16.5955 11.9033C16.8644 12.1722 16.9988 12.5022 16.9988 12.8933V19.7133C16.9988 20.1044 16.8644 20.4344 16.5955 20.7033C16.3266 20.9722 15.9966 21.1067 15.6055 21.1067H7.39214C7.00102 21.1067 6.67102 20.9722 6.40214 20.7033C6.13325 20.4344 5.9988 20.1044 5.9988 19.7133V12.8933C5.9988 12.5022 6.13325 12.1722 6.40214 11.9033C6.67102 11.6344 7.00102 11.5 7.39214 11.5Z" fill="black"/>
</g>
<defs>
<clipPath id="clip0_8595_10351">
<rect width="22" height="22" fill="white" transform="matrix(1 0 0 -1 0.5 22.5)"/>
</clipPath>
</defs>
</svg>
