<svg width="23" height="23" viewBox="0 0 23 23" fill="none" xmlns="http://www.w3.org/2000/svg">
<g clip-path="url(#clip0_8595_10242)">
<path d="M17.22 0.939779C17.8556 0.793114 18.43 0.927557 18.9433 1.34311C19.4567 1.75867 19.7378 2.28422 19.7867 2.91978V4.60645H20.4467C21.0333 4.60645 21.5222 4.81422 21.9133 5.22978C22.3044 5.64534 22.5 6.122 22.5 6.65978V19.0531C22.5 19.6398 22.3044 20.1287 21.9133 20.5198C21.5222 20.9109 21.0333 21.1064 20.4467 21.1064H2.55333C1.96667 21.1064 1.47778 20.9109 1.08667 20.5198C0.695556 20.1287 0.5 19.6398 0.5 19.0531V6.65978C0.5 6.122 0.695556 5.65756 1.08667 5.26645C1.47778 4.87534 1.94222 4.65533 2.48 4.60645L17.22 0.939779ZM8.12667 4.60645H18.3933V2.91978C18.3933 2.72422 18.3078 2.55311 18.1367 2.40645C17.9656 2.25978 17.7578 2.21089 17.5133 2.25978L8.12667 4.60645ZM2.55333 5.99978C2.35778 5.99978 2.19889 6.06089 2.07667 6.18311C1.95444 6.30534 1.89333 6.46422 1.89333 6.65978V19.0531C1.89333 19.2487 1.95444 19.4076 2.07667 19.5298C2.19889 19.652 2.35778 19.7131 2.55333 19.7131H20.4467C20.6422 19.7131 20.8011 19.652 20.9233 19.5298C21.0456 19.4076 21.1067 19.2487 21.1067 19.0531V6.65978C21.1067 6.46422 21.0456 6.30534 20.9233 6.18311C20.8011 6.06089 20.6422 5.99978 20.4467 5.99978H2.55333Z" fill="black"/>
</g>
<defs>
<clipPath id="clip0_8595_10242">
<rect width="22" height="22" fill="white" transform="matrix(1 0 0 -1 0.5 22.5)"/>
</clipPath>
</defs>
</svg>
