<svg width="20" height="20" viewBox="0 0 20 20" fill="none" xmlns="http://www.w3.org/2000/svg">
<g clip-path="url(#clip0_8595_10152)">
<path d="M0.796875 3.09937C0.796875 2.92862 0.850208 2.77921 0.956875 2.65114C1.06354 2.52307 1.20221 2.45904 1.37288 2.45904H3.22888C3.35688 2.50173 3.47421 2.55509 3.58088 2.61912C3.68754 2.68316 3.76221 2.80055 3.80488 2.97131L4.25288 4.89231H18.2049C18.3755 4.89231 18.5249 4.96701 18.6529 5.11642C18.7809 5.26583 18.8235 5.44726 18.7809 5.66071L16.9889 12.8324C16.9462 12.9605 16.8715 13.0672 16.7649 13.1526C16.6582 13.238 16.5409 13.2807 16.4129 13.2807H5.59688C5.46888 13.2807 5.35154 13.238 5.24488 13.1526C5.13821 13.0672 5.06354 12.9605 5.02087 12.8324L2.71688 3.67567H1.37288C1.20221 3.67567 1.06354 3.62231 0.956875 3.51559C0.850208 3.40887 0.796875 3.27013 0.796875 3.09937ZM4.57288 6.10894L6.04488 12.064H15.9009L17.4369 6.10894H4.57288ZM6.81288 15.7139C6.47154 15.7139 6.18354 15.8313 5.94888 16.0661C5.71421 16.3009 5.59688 16.5784 5.59688 16.8986C5.59688 17.2187 5.71421 17.4962 5.94888 17.731C6.18354 17.9658 6.47154 18.0832 6.81288 18.0832C7.15421 18.0832 7.44221 17.9658 7.67688 17.731C7.91154 17.4962 8.01821 17.2187 7.99688 16.8986C7.97554 16.5784 7.85821 16.3009 7.64488 16.0661C7.43154 15.8313 7.15421 15.7139 6.81288 15.7139ZM4.38088 16.8665C4.38088 16.2262 4.61554 15.6712 5.08488 15.2017C5.55421 14.7321 6.11954 14.4973 6.78088 14.4973C7.44221 14.4973 8.00754 14.7321 8.47688 15.2017C8.94621 15.6712 9.18088 16.2369 9.18088 16.8986C9.18088 17.5602 8.94621 18.1259 8.47688 18.5954C8.00754 19.065 7.44221 19.2998 6.78088 19.2998C6.11954 19.2998 5.55421 19.065 5.08488 18.5954C4.61554 18.1259 4.38088 17.5709 4.38088 16.9306V16.8665ZM15.1969 15.7139C14.8555 15.7139 14.5675 15.8313 14.3329 16.0661C14.0982 16.3009 13.9809 16.5784 13.9809 16.8986C13.9809 17.2187 14.0982 17.4962 14.3329 17.731C14.5675 17.9658 14.8555 18.0832 15.1969 18.0832C15.5382 18.0832 15.8262 17.9658 16.0609 17.731C16.2955 17.4962 16.4129 17.2187 16.4129 16.8986C16.4129 16.5784 16.2955 16.3009 16.0609 16.0661C15.8262 15.8313 15.5382 15.7139 15.1969 15.7139ZM12.8289 16.8665C12.8289 16.2262 13.0529 15.6712 13.5009 15.2017C13.9489 14.7321 14.5142 14.4973 15.1969 14.4973C15.8795 14.4973 16.4555 14.7321 16.9249 15.2017C17.3942 15.6712 17.6289 16.2369 17.6289 16.8986C17.6289 17.5602 17.3942 18.1259 16.9249 18.5954C16.4555 19.065 15.8795 19.2998 15.1969 19.2998C14.5142 19.2998 13.9489 19.065 13.5009 18.5954C13.0529 18.1259 12.8289 17.5709 12.8289 16.9306V16.8665Z" fill="black" fill-opacity="0.85"/>
</g>
<defs>
<clipPath id="clip0_8595_10152">
<rect width="19.2" height="19.21" fill="white" transform="matrix(1 0 0 -1 0.796875 19.2998)"/>
</clipPath>
</defs>
</svg>
