<svg width="23" height="23" viewBox="0 0 23 23" fill="none" xmlns="http://www.w3.org/2000/svg">
<g clip-path="url(#clip0_8595_10281)">
<path d="M19.7867 1.89354C20.1289 1.89354 20.4344 2.02799 20.7033 2.29688C20.9722 2.56577 21.1067 2.87132 21.1067 3.21354V14.2135C21.1067 14.6047 20.9722 14.9347 20.7033 15.2035C20.4344 15.4724 20.1289 15.6069 19.7867 15.6069H16.34C15.9 15.6069 15.4844 15.7047 15.0933 15.9002C14.7022 16.0958 14.3844 16.3647 14.14 16.7069L11.5 20.2269L8.86 16.7069C8.61555 16.3647 8.29778 16.0958 7.90667 15.9002C7.51556 15.7047 7.1 15.6069 6.66 15.6069H3.28667C2.89556 15.6069 2.56556 15.4724 2.29667 15.2035C2.02778 14.9347 1.89333 14.6047 1.89333 14.2135V3.21354C1.89333 2.87132 2.02778 2.56577 2.29667 2.29688C2.56556 2.02799 2.87111 1.89354 3.21333 1.89354H19.7867ZM3.28667 0.50021C2.50444 0.50021 1.84444 0.769098 1.30667 1.30688C0.768889 1.84465 0.5 2.50465 0.5 3.28687V14.2135C0.5 14.9958 0.768889 15.6558 1.30667 16.1935C1.84444 16.7313 2.48 17.0002 3.21333 17.0002H6.66C7.14889 17.0002 7.51556 17.1958 7.76 17.5869L10.4 21.0335C10.6933 21.3758 11.06 21.5469 11.5 21.5469C11.94 21.5469 12.3067 21.3758 12.6 21.0335L15.24 17.5135C15.4844 17.1713 15.8511 17.0002 16.34 17.0002H19.7867C20.52 17.0002 21.1556 16.7313 21.6933 16.1935C22.2311 15.6558 22.5 14.9958 22.5 14.2135V3.21354C22.5 2.48021 22.2311 1.84465 21.6933 1.30688C21.1556 0.769098 20.4956 0.50021 19.7133 0.50021H3.28667Z" fill="black"/>
</g>
<defs>
<clipPath id="clip0_8595_10281">
<rect width="22" height="22" fill="white" transform="matrix(1 0 0 -1 0.5 22.5)"/>
</clipPath>
</defs>
</svg>
