<svg width="23" height="23" viewBox="0 0 23 23" fill="none" xmlns="http://www.w3.org/2000/svg">
<g clip-path="url(#clip0_8595_10256)">
<path d="M9.44516 3.21334C9.2496 3.21334 9.07849 3.28667 8.93182 3.43333C8.78516 3.58 8.71182 3.75111 8.71182 3.94667C8.71182 4.14222 8.78516 4.30111 8.93182 4.42333C9.07849 4.54556 9.2496 4.60667 9.44516 4.60667H13.5518C13.7474 4.60667 13.9185 4.54556 14.0652 4.42333C14.2118 4.30111 14.2852 4.14222 14.2852 3.94667C14.2852 3.75111 14.2118 3.58 14.0652 3.43333C13.9185 3.28667 13.7474 3.21334 13.5518 3.21334H9.44516ZM15.6052 11.5C15.6052 12.6244 15.2018 13.59 14.3952 14.3967C13.5885 15.2033 12.6229 15.6067 11.4985 15.6067C10.374 15.6067 9.40849 15.2033 8.60182 14.3967C7.79516 13.59 7.39182 12.6244 7.39182 11.5C7.39182 10.3756 7.79516 9.41 8.60182 8.60333C9.40849 7.79667 10.374 7.39333 11.4985 7.39333C12.6229 7.39333 13.5885 7.79667 14.3952 8.60333C15.2018 9.41 15.6052 10.3756 15.6052 11.5ZM6.65849 0.5C5.7296 0.5 4.93516 0.83 4.27516 1.49C3.61516 2.15 3.28516 2.96889 3.28516 3.94667V19.7133C3.28516 20.4956 3.54182 21.1556 4.05516 21.6933C4.56849 22.2311 5.21627 22.5 5.99849 22.5H16.9985C17.7807 22.5 18.4407 22.2311 18.9785 21.6933C19.5163 21.1556 19.7852 20.4956 19.7852 19.7133V3.94667C19.7852 2.96889 19.4429 2.15 18.7585 1.49C18.074 0.83 17.2674 0.5 16.3385 0.5H6.65849ZM4.60516 3.94667C4.60516 3.36 4.81293 2.87111 5.22849 2.48C5.64405 2.08889 6.12071 1.89333 6.65849 1.89333H16.3385C16.8763 1.89333 17.3529 2.08889 17.7685 2.48C18.184 2.87111 18.3918 3.36 18.3918 3.94667V18.76C18.0496 18.5156 17.6829 18.2956 17.2918 18.1C15.8252 17.3667 13.894 17 11.4985 17C9.10293 17 7.17182 17.3667 5.70516 18.1C5.31404 18.2956 4.94738 18.5156 4.60516 18.76V3.94667Z" fill="black"/>
</g>
<defs>
<clipPath id="clip0_8595_10256">
<rect width="22" height="22" fill="white" transform="matrix(1 0 0 -1 0.5 22.5)"/>
</clipPath>
</defs>
</svg>
