<svg width="23" height="23" viewBox="0 0 23 23" fill="none" xmlns="http://www.w3.org/2000/svg">
<path d="M6.0012 15.6064H3.28786V19.7131H6.0012V15.6064ZM12.8945 10.1064H10.1079V19.7131H12.8945V10.1064ZM19.7879 3.21311V19.7131H17.0012V3.21311H19.7879ZM17.0012 1.89311C16.6101 1.89311 16.2801 2.02756 16.0112 2.29645C15.7423 2.56533 15.6079 2.87089 15.6079 3.21311V19.7131C15.6079 20.1042 15.7423 20.4342 16.0112 20.7031C16.2801 20.972 16.6101 21.1064 17.0012 21.1064H19.7879C20.1301 21.1064 20.4356 20.972 20.7045 20.7031C20.9734 20.4342 21.1079 20.1042 21.1079 19.7131V3.21311C21.1079 2.87089 20.9734 2.56533 20.7045 2.29645C20.4356 2.02756 20.1301 1.89311 19.7879 1.89311H17.0012ZM8.78786 10.1064C8.73898 9.71533 8.84898 9.38533 9.11786 9.11645C9.38675 8.84756 9.71675 8.71311 10.1079 8.71311H12.8945C13.2856 8.71311 13.6156 8.84756 13.8845 9.11645C14.1534 9.38533 14.2879 9.71533 14.2879 10.1064V19.7131C14.2879 20.1042 14.1534 20.4342 13.8845 20.7031C13.6156 20.972 13.2856 21.1064 12.8945 21.1064H10.1079C9.71675 21.1064 9.39898 20.972 9.15453 20.7031C8.91009 20.4342 8.78786 20.1042 8.78786 19.7131V10.1064ZM1.89453 15.6064C1.89453 15.2153 2.02898 14.8853 2.29786 14.6164C2.56675 14.3476 2.87231 14.2131 3.21453 14.2131H6.0012C6.39231 14.262 6.72231 14.4087 6.9912 14.6531C7.26009 14.8976 7.39453 15.2153 7.39453 15.6064V19.7131C7.39453 20.1042 7.26009 20.4342 6.9912 20.7031C6.72231 20.972 6.39231 21.1064 6.0012 21.1064H3.28786C2.89675 21.1064 2.56675 20.972 2.29786 20.7031C2.02898 20.4342 1.89453 20.1042 1.89453 19.7131V15.6064Z" fill="black"/>
</svg>
