<svg width="13" height="13" viewBox="0 0 13 13" fill="none" xmlns="http://www.w3.org/2000/svg">
<g clip-path="url(#clip0_8595_9816)">
<path d="M0 6.65527C0 5.53916 0.272222 4.51152 0.816667 3.57236C1.36111 2.63319 2.10292 1.89139 3.04208 1.34694C3.98125 0.802496 5.00889 0.530274 6.125 0.530274C7.24111 0.530274 8.26875 0.802496 9.20792 1.34694C10.1471 1.89139 10.8889 2.63319 11.4333 3.57236C11.9778 4.51152 12.25 5.53916 12.25 6.65527C12.25 7.77138 11.9778 8.79902 11.4333 9.73819C10.8889 10.6774 10.1471 11.4192 9.20792 11.9636C8.26875 12.5081 7.24111 12.7803 6.125 12.7803C5.00889 12.7803 3.98125 12.5081 3.04208 11.9636C2.10292 11.4192 1.36111 10.6774 0.816667 9.73819C0.272222 8.79902 0 7.77138 0 6.65527ZM5.7575 1.34694C5.21306 1.51027 4.72306 1.98666 4.2875 2.77611C4.17861 2.99389 4.08333 3.21166 4.00167 3.42944C4.54611 3.56555 5.13139 3.64722 5.7575 3.67444V1.34694ZM3.26667 3.22527C3.37556 2.95305 3.49806 2.68764 3.63417 2.42902C3.77028 2.17041 3.92 1.93222 4.08333 1.71444C3.43 1.98666 2.84472 2.36777 2.3275 2.85777C2.62694 2.99389 2.94 3.11638 3.26667 3.22527ZM2.695 6.28777C2.72222 5.47111 2.83111 4.69527 3.02167 3.96027C2.61333 3.82416 2.21861 3.66083 1.8375 3.47027C1.21139 4.28694 0.8575 5.22611 0.775833 6.28777H2.695ZM3.75667 4.16444C3.56611 4.87222 3.47083 5.58 3.47083 6.28777H5.7575V4.40944C5.04972 4.40944 4.38278 4.32777 3.75667 4.16444ZM6.4925 4.40944V6.28777H8.77917C8.77917 5.58 8.68389 4.87222 8.49333 4.16444C7.86722 4.32777 7.20028 4.40944 6.4925 4.40944ZM3.47083 7.02277C3.49806 7.785 3.59333 8.49277 3.75667 9.14611C4.41 8.98277 5.07694 8.90111 5.7575 8.90111V7.02277H3.47083ZM6.4925 7.02277V8.90111C7.20028 8.90111 7.86722 8.98277 8.49333 9.14611C8.65667 8.49277 8.75194 7.785 8.77917 7.02277H6.4925ZM4.00167 9.88111C4.08333 10.1261 4.17861 10.3439 4.2875 10.5344C4.72306 11.3239 5.21306 11.8003 5.7575 11.9636V9.63611C5.13139 9.66333 4.54611 9.745 4.00167 9.88111ZM4.08333 11.5961C3.92 11.3783 3.77028 11.1401 3.63417 10.8815C3.49806 10.6229 3.37556 10.3575 3.26667 10.0853C2.94 10.1669 2.62694 10.2894 2.3275 10.4528C2.84472 10.9428 3.43 11.3239 4.08333 11.5961ZM3.02167 9.35027C2.83111 8.58805 2.72222 7.81222 2.695 7.02277H0.775833C0.8575 8.08444 1.21139 9.02361 1.8375 9.84027C2.19139 9.64972 2.58611 9.48638 3.02167 9.35027ZM8.16667 11.5961C8.82 11.3239 9.40528 10.9428 9.9225 10.4528C9.62306 10.2894 9.31 10.1669 8.98333 10.0853C8.87444 10.3575 8.75194 10.6229 8.61583 10.8815C8.47972 11.1401 8.33 11.3783 8.16667 11.5961ZM6.4925 9.63611V11.9636C7.03694 11.8003 7.52694 11.3239 7.9625 10.5344C8.07139 10.3167 8.16667 10.0989 8.24833 9.88111C7.67667 9.745 7.09139 9.66333 6.4925 9.63611ZM9.22833 9.35027C9.66389 9.48638 10.0586 9.64972 10.4125 9.84027C11.0386 9.02361 11.3925 8.08444 11.4742 7.02277H9.555C9.52778 7.81222 9.41889 8.58805 9.22833 9.35027ZM11.4742 6.28777C11.3925 5.22611 11.0386 4.28694 10.4125 3.47027C10.0586 3.66083 9.66389 3.82416 9.22833 3.96027C9.41889 4.69527 9.52778 5.47111 9.555 6.28777H11.4742ZM8.61583 2.40861C8.75194 2.68083 8.87444 2.95305 8.98333 3.22527C9.31 3.14361 9.62306 3.02111 9.9225 2.85777C9.40528 2.36777 8.82 1.98666 8.16667 1.71444C8.33 1.93222 8.47972 2.16361 8.61583 2.40861ZM8.24833 3.42944C8.16667 3.21166 8.07139 2.99389 7.9625 2.77611C7.52694 1.98666 7.03694 1.51027 6.4925 1.34694V3.67444C7.11861 3.64722 7.70389 3.56555 8.24833 3.42944Z" fill="#634C9F"/>
</g>
<defs>
<clipPath id="clip0_8595_9816">
<rect width="12.25" height="12.25" fill="white" transform="matrix(1 0 0 -1 0 12.7803)"/>
</clipPath>
</defs>
</svg>
