<svg width="23" height="23" viewBox="0 0 23 23" fill="none" xmlns="http://www.w3.org/2000/svg">
<g clip-path="url(#clip0_8595_10293)">
<path d="M0.5 5.99956C0.5 5.21734 0.768889 4.55734 1.30667 4.01956C1.84444 3.48178 2.50444 3.21289 3.28667 3.21289H19.7867C20.52 3.21289 21.1556 3.48178 21.6933 4.01956C22.2311 4.55734 22.5 5.21734 22.5 5.99956V16.9996C22.5 17.7818 22.2311 18.4296 21.6933 18.9429C21.1556 19.4562 20.4956 19.7129 19.7133 19.7129H3.28667C2.50444 19.7129 1.84444 19.4562 1.30667 18.9429C0.768889 18.4296 0.5 17.7818 0.5 16.9996V5.99956ZM3.28667 4.60623C2.89556 4.60623 2.56556 4.74067 2.29667 5.00956C2.02778 5.27845 1.89333 5.60845 1.89333 5.99956V6.29289L11.5 12.0862L21.1067 6.29289V5.99956C21.1067 5.60845 20.9722 5.27845 20.7033 5.00956C20.4344 4.74067 20.1289 4.60623 19.7867 4.60623H3.28667ZM21.1067 7.90622L14.58 11.7929L21.1067 15.7529V7.90622ZM21.1067 17.3662L13.26 12.5996L11.5 13.6996L9.74 12.5996L1.89333 17.3662C1.99111 17.6596 2.16222 17.904 2.40667 18.0996C2.65111 18.2951 2.94444 18.3929 3.28667 18.3929H19.7867C20.08 18.3929 20.3489 18.2951 20.5933 18.0996C20.8378 17.904 21.0089 17.6596 21.1067 17.3662ZM1.89333 15.7529L8.42 11.7929L1.89333 7.90622V15.7529Z" fill="black"/>
</g>
<defs>
<clipPath id="clip0_8595_10293">
<rect width="22" height="22" fill="white" transform="matrix(1 0 0 -1 0.5 22.5)"/>
</clipPath>
</defs>
</svg>
