<svg width="23" height="23" viewBox="0 0 23 23" fill="none" xmlns="http://www.w3.org/2000/svg">
<g clip-path="url(#clip0_8595_10365)">
<path d="M6.73333 0.720001C6.88 0.573334 7.05111 0.5 7.24667 0.5H15.7533C15.9489 0.5 16.12 0.573334 16.2667 0.720001L22.28 6.73333C22.4267 6.88 22.5 7.05111 22.5 7.24667V15.7533C22.5 15.9489 22.4267 16.12 22.28 16.2667L16.2667 22.28C16.12 22.4267 15.9489 22.5 15.7533 22.5H7.24667C7.05111 22.5 6.88 22.4267 6.73333 22.28L0.72 16.2667C0.573333 16.12 0.5 15.9489 0.5 15.7533V7.24667C0.5 7.05111 0.573333 6.88 0.72 6.73333L6.73333 0.720001ZM7.54 1.89333L1.89333 7.54V15.46L7.54 21.1067H15.46L21.1067 15.46V7.54L15.46 1.89333H7.54ZM10.1067 15.6067C10.1067 15.2156 10.2411 14.8978 10.51 14.6533C10.7789 14.4089 11.1089 14.2867 11.5 14.2867C11.8911 14.2867 12.2211 14.4089 12.49 14.6533C12.7589 14.8978 12.8933 15.2156 12.8933 15.6067C12.8933 15.9978 12.7589 16.3278 12.49 16.5967C12.2211 16.8656 11.8911 17 11.5 17C11.1089 17 10.7789 16.8656 10.51 16.5967C10.2411 16.3278 10.1067 15.9978 10.1067 15.6067ZM10.2533 7.39333C10.2533 7.14889 10.3022 6.91667 10.4 6.69667C10.4978 6.47667 10.6444 6.30556 10.84 6.18333C11.0356 6.06111 11.2556 6 11.5 6C11.7444 6 11.9644 6.06111 12.16 6.18333C12.3556 6.30556 12.5022 6.47667 12.6 6.69667C12.6978 6.91667 12.7467 7.14889 12.7467 7.39333L12.2333 12.16C12.2333 12.3556 12.16 12.5267 12.0133 12.6733C11.8667 12.82 11.6956 12.8933 11.5 12.8933C11.3044 12.8933 11.1333 12.82 10.9867 12.6733C10.84 12.5267 10.7667 12.3556 10.7667 12.16L10.2533 7.39333Z" fill="black"/>
</g>
<defs>
<clipPath id="clip0_8595_10365">
<rect width="22" height="22" fill="white" transform="matrix(1 0 0 -1 0.5 22.5)"/>
</clipPath>
</defs>
</svg>
