<svg width="154" height="40" viewBox="0 0 154 40" fill="none" xmlns="http://www.w3.org/2000/svg">
<path d="M22.3595 39.3135C31.1723 39.3135 38.3166 32.1692 38.3166 23.3564V11.7494C38.3166 8.23801 35.4701 5.39151 31.9587 5.39151H12.7603C9.24884 5.39151 6.40234 8.23801 6.40234 11.7494V23.3563C6.40234 32.1692 13.5466 39.3135 22.3595 39.3135Z" fill="#634C9F"/>
<path d="M15.0287 24.2418C15.3612 25.7379 16.3586 27.7325 17.5222 28.0649C24.2057 30.3436 31.3059 30.2625 38.3151 30.3584V11.7491C38.3151 8.23767 35.4686 5.39117 31.9571 5.39117H12.7587C10.8622 5.39117 9.16086 6.22248 7.99609 7.53935C13.5001 10.889 13.3089 18.3003 15.0287 24.2418Z" fill="#FACC15"/>
<path d="M36.7976 31.2842C36.6699 31.2842 36.5415 31.279 36.4123 31.2686L20.0381 29.9319C17.5265 29.7268 15.4061 27.9523 14.7617 25.5164L11.5694 13.4502C11.0034 11.3046 10.4179 9.08632 7.9167 8.41426L0.79662 6.95045C0.257208 6.83957 -0.090377 6.3123 0.0206638 5.77272C0.131538 5.23314 0.659649 4.88572 1.1984 4.9966L8.39926 6.47853C12.0463 7.43833 12.8854 10.619 13.4982 12.9413L13.5391 13.0966L16.6901 25.0062C17.1188 26.6268 18.5294 27.8072 20.2003 27.9438L36.5747 29.2805C37.8766 29.3868 39.0729 28.55 39.4202 27.2914L42.4368 16.3567L21.5278 14.639C21.0755 14.6023 20.6488 14.779 20.3559 15.1249C20.063 15.471 19.9588 15.9213 20.07 16.3608L21.0032 20.0516C21.3117 21.2714 22.36 22.1757 23.612 22.3018L33.4695 23.2952C33.9729 23.3459 34.4327 23.0462 34.5906 22.567C34.6927 22.2565 34.6486 21.9215 34.4694 21.6481C34.2901 21.3746 34.0005 21.2004 33.6748 21.1703L25.3966 20.4047C24.8483 20.354 24.4448 19.8683 24.4955 19.3197C24.5462 18.7713 25.0293 18.3675 25.5805 18.4184L33.8587 19.1841C34.7927 19.2705 35.6234 19.77 36.1377 20.5546C36.6518 21.339 36.7785 22.3002 36.4851 23.191C36.0321 24.5662 34.7081 25.4253 33.2696 25.2798L23.412 24.2864C21.328 24.0765 19.5828 22.5711 19.0693 20.5406L18.1361 16.8499C17.865 15.7782 18.1193 14.6798 18.8336 13.8361C19.5479 12.9924 20.5893 12.561 21.6911 12.6509L45 14.5657L41.3431 27.8218C40.7758 29.8779 38.9001 31.284 36.7976 31.2842Z" fill="#634C9F"/>
<path d="M22.3716 33.7409C22.3716 35.2404 21.156 36.4561 19.6564 36.4561C18.157 36.4561 16.9414 35.2404 16.9414 33.7409C16.9414 32.2413 18.157 31.0259 19.6564 31.0259C21.156 31.0259 22.3716 32.2413 22.3716 33.7409Z" fill="#DC2626"/>
<path d="M35.8666 34.5665C35.8666 35.4726 35.1322 36.207 34.2263 36.207C33.3203 36.207 32.5859 35.4726 32.5859 34.5665C32.5859 33.6606 33.3203 32.9262 34.2263 32.9262C35.1322 32.9262 35.8666 33.6606 35.8666 34.5665Z" fill="#DC2626"/>
<path d="M19.5192 9.61451C19.5192 10.9304 18.4525 11.9971 17.1366 11.9971C15.8208 11.9971 14.7539 10.9304 14.7539 9.61451C14.7539 8.29865 15.8208 7.23179 17.1366 7.23179C18.4525 7.23179 19.5192 8.29865 19.5192 9.61451Z" fill="#F25321"/>
<path d="M23.9375 3.90725C23.9375 5.68606 22.4956 7.12793 20.7168 7.12793C18.9381 7.12793 17.4961 5.68606 17.4961 3.90725C17.4961 2.1286 18.9381 0.686566 20.7168 0.686566C22.4956 0.686566 23.9375 2.1286 23.9375 3.90725Z" fill="#634C9F"/>
<path d="M23.1557 8.81959C23.1557 9.44178 22.6514 9.94629 22.029 9.94629C21.4068 9.94629 20.9023 9.44178 20.9023 8.81959C20.9023 8.1974 21.4068 7.69289 22.029 7.69289C22.6514 7.69289 23.1557 8.1974 23.1557 8.81959Z" fill="#634C9F"/>
<path d="M30.1459 5.54137C30.1459 6.97958 28.9798 8.14551 27.5416 8.14551C26.1033 8.14551 24.9375 6.97958 24.9375 5.54137C24.9375 4.10299 26.1033 2.93707 27.5416 2.93707C28.9798 2.93707 30.1459 4.10299 30.1459 5.54137Z" fill="#F25321"/>
<path d="M32.649 10.4314C32.649 11.6019 31.7 12.5508 30.5296 12.5508C29.359 12.5508 28.4102 11.6019 28.4102 10.4314C28.4102 9.26095 29.359 8.31195 30.5296 8.31195C31.7 8.31195 32.649 9.26095 32.649 10.4314Z" fill="#F25321"/>
<path d="M41.6451 11.3591C41.6451 12.5297 40.6961 13.4785 39.5257 13.4785C38.3551 13.4785 37.4062 12.5297 37.4062 11.3591C37.4062 10.1887 38.3551 9.23968 39.5257 9.23968C40.6961 9.23968 41.6451 10.1887 41.6451 11.3591Z" fill="#634C9F"/>
<path d="M26.9118 10.8048C26.9118 11.5853 26.2793 12.2178 25.4989 12.2178C24.7186 12.2178 24.0859 11.5853 24.0859 10.8048C24.0859 10.0246 24.7186 9.39188 25.4989 9.39188C26.2793 9.39188 26.9118 10.0246 26.9118 10.8048Z" fill="#634C9F"/>
<path d="M35.4721 5.67996C35.4721 6.65922 34.6782 7.45312 33.6989 7.45312C32.7199 7.45312 31.9258 6.65922 31.9258 5.67996C31.9258 4.70071 32.7199 3.9068 33.6989 3.9068C34.6782 3.9068 35.4721 4.70071 35.4721 5.67996Z" fill="#634C9F"/>
<path d="M36.2204 11.3595C36.2204 12.1398 35.5879 12.7725 34.8075 12.7725C34.0272 12.7725 33.3945 12.1398 33.3945 11.3595C33.3945 10.5792 34.0272 9.94657 34.8075 9.94657C35.5879 9.94657 36.2204 10.5792 36.2204 11.3595Z" fill="#634C9F"/>
<path d="M37.8591 8.14555C37.8591 8.80348 37.3257 9.33691 36.6678 9.33691C36.0098 9.33691 35.4766 8.80348 35.4766 8.14555C35.4766 7.48762 36.0098 6.95436 36.6678 6.95436C37.3257 6.95436 37.8591 7.48762 37.8591 8.14555Z" fill="#F25321"/>
<path d="M63.5057 8.23198H67.1534V20.4024C67.1534 21.5274 66.9006 22.5047 66.3949 23.3343C65.8949 24.1638 65.1989 24.803 64.3068 25.2519C63.4148 25.7007 62.3778 25.9252 61.196 25.9252C60.1449 25.9252 59.1903 25.7405 58.3324 25.3712C57.4801 24.9962 56.804 24.428 56.304 23.6666C55.804 22.8996 55.5568 21.9365 55.5625 20.7774H59.2358C59.2472 21.2377 59.3409 21.6325 59.517 21.9621C59.6989 22.286 59.946 22.536 60.2585 22.7121C60.5767 22.8825 60.9517 22.9678 61.3835 22.9678C61.8381 22.9678 62.2216 22.8712 62.5341 22.678C62.8523 22.4791 63.0938 22.1894 63.2585 21.8087C63.4233 21.428 63.5057 20.9593 63.5057 20.4024V8.23198ZM70.1364 25.6865V12.5956H73.767V25.6865H70.1364ZM71.9602 10.9081C71.4205 10.9081 70.9574 10.7291 70.571 10.3712C70.1903 10.0075 70 9.57289 70 9.0672C70 8.5672 70.1903 8.13823 70.571 7.78027C70.9574 7.41664 71.4205 7.23482 71.9602 7.23482C72.5 7.23482 72.9602 7.41664 73.3409 7.78027C73.7273 8.13823 73.9205 8.5672 73.9205 9.0672C73.9205 9.57289 73.7273 10.0075 73.3409 10.3712C72.9602 10.7291 72.5 10.9081 71.9602 10.9081ZM80.3061 18.1183V25.6865H76.6754V12.5956H80.1357V14.9053H80.2891C80.5788 14.1439 81.0646 13.5416 81.7464 13.0985C82.4283 12.6496 83.255 12.4252 84.2266 12.4252C85.1357 12.4252 85.9283 12.624 86.6044 13.0218C87.2805 13.4195 87.8061 13.9877 88.1811 14.7263C88.5561 15.4593 88.7436 16.3343 88.7436 17.3513V25.6865H85.1129V17.999C85.1186 17.1979 84.9141 16.5729 84.4993 16.124C84.0845 15.6695 83.5135 15.4422 82.7862 15.4422C82.2976 15.4422 81.8658 15.5473 81.4908 15.7575C81.1214 15.9678 80.8317 16.2746 80.6214 16.678C80.4169 17.0757 80.3118 17.5558 80.3061 18.1183ZM101.142 13.2519C101.074 12.5644 100.781 12.0303 100.264 11.6496C99.7472 11.2689 99.0455 11.0786 98.1591 11.0786C97.5568 11.0786 97.0483 11.1638 96.6335 11.3343C96.2188 11.499 95.9006 11.7291 95.679 12.0246C95.4631 12.32 95.3551 12.6553 95.3551 13.0303C95.3438 13.3428 95.4091 13.6155 95.5511 13.8485C95.6989 14.0814 95.9006 14.2831 96.1562 14.4536C96.4119 14.6183 96.7074 14.7632 97.0426 14.8882C97.3778 15.0075 97.7358 15.1098 98.1165 15.195L99.6847 15.57C100.446 15.7405 101.145 15.9678 101.781 16.2519C102.418 16.536 102.969 16.8854 103.435 17.3002C103.901 17.7149 104.261 18.2036 104.517 18.7661C104.778 19.3286 104.912 19.9735 104.918 20.7007C104.912 21.7689 104.639 22.695 104.099 23.4791C103.565 24.2575 102.793 24.8627 101.781 25.2945C100.776 25.7206 99.5625 25.9337 98.142 25.9337C96.733 25.9337 95.5057 25.7178 94.4602 25.286C93.4205 24.8541 92.608 24.2149 92.0227 23.3683C91.4432 22.5161 91.1392 21.4621 91.1108 20.2064H94.6818C94.7216 20.7916 94.8892 21.2803 95.1847 21.6723C95.4858 22.0587 95.8864 22.3513 96.3864 22.5502C96.892 22.7433 97.4631 22.8399 98.0994 22.8399C98.7244 22.8399 99.267 22.749 99.7273 22.5672C100.193 22.3854 100.554 22.1325 100.81 21.8087C101.065 21.4848 101.193 21.1127 101.193 20.6922C101.193 20.3002 101.077 19.9706 100.844 19.7036C100.616 19.4365 100.281 19.2093 99.8381 19.0218C99.4006 18.8343 98.8636 18.6638 98.2273 18.5104L96.3267 18.0331C94.8551 17.6752 93.6932 17.1155 92.8409 16.3541C91.9886 15.5928 91.5653 14.5672 91.571 13.2774C91.5653 12.2206 91.8466 11.2973 92.4148 10.5075C92.9886 9.71777 93.7756 9.1013 94.7756 8.65811C95.7756 8.21493 96.9119 7.99334 98.1847 7.99334C99.4801 7.99334 100.611 8.21493 101.577 8.65811C102.548 9.1013 103.304 9.71777 103.844 10.5075C104.384 11.2973 104.662 12.2121 104.679 13.2519H101.142ZM114.295 12.5956V15.3229H106.411V12.5956H114.295ZM108.201 9.45925H111.832V21.6638C111.832 21.999 111.883 22.2604 111.985 22.4479C112.087 22.6297 112.229 22.7575 112.411 22.8314C112.599 22.9053 112.815 22.9422 113.059 22.9422C113.229 22.9422 113.4 22.928 113.57 22.8996C113.741 22.8655 113.871 22.8399 113.962 22.8229L114.533 25.5246C114.352 25.5814 114.096 25.6468 113.766 25.7206C113.437 25.8002 113.036 25.8485 112.565 25.8655C111.69 25.8996 110.923 25.7831 110.263 25.5161C109.61 25.249 109.102 24.8343 108.738 24.2718C108.374 23.7093 108.195 22.999 108.201 22.1411V9.45925ZM122.434 25.9422C121.11 25.9422 119.965 25.661 118.999 25.0985C118.039 24.5303 117.298 23.7405 116.775 22.7291C116.252 21.7121 115.991 20.5331 115.991 19.1922C115.991 17.8399 116.252 16.6581 116.775 15.6468C117.298 14.6297 118.039 13.8399 118.999 13.2774C119.965 12.7093 121.11 12.4252 122.434 12.4252C123.758 12.4252 124.9 12.7093 125.86 13.2774C126.826 13.8399 127.57 14.6297 128.093 15.6468C128.616 16.6581 128.877 17.8399 128.877 19.1922C128.877 20.5331 128.616 21.7121 128.093 22.7291C127.57 23.7405 126.826 24.5303 125.86 25.0985C124.9 25.661 123.758 25.9422 122.434 25.9422ZM122.451 23.1297C123.053 23.1297 123.556 22.9593 123.96 22.6183C124.363 22.2718 124.667 21.8002 124.871 21.2036C125.082 20.607 125.187 19.928 125.187 19.1666C125.187 18.4053 125.082 17.7263 124.871 17.1297C124.667 16.5331 124.363 16.0615 123.96 15.7149C123.556 15.3683 123.053 15.195 122.451 15.195C121.843 15.195 121.332 15.3683 120.917 15.7149C120.508 16.0615 120.198 16.5331 119.988 17.1297C119.783 17.7263 119.681 18.4053 119.681 19.1666C119.681 19.928 119.783 20.607 119.988 21.2036C120.198 21.8002 120.508 22.2718 120.917 22.6183C121.332 22.9593 121.843 23.1297 122.451 23.1297ZM131.238 25.6865V12.5956H134.758V14.8797H134.894C135.133 14.0672 135.533 13.4536 136.096 13.0388C136.658 12.6183 137.306 12.4081 138.039 12.4081C138.221 12.4081 138.417 12.4195 138.627 12.4422C138.837 12.4649 139.022 12.4962 139.181 12.536V15.7575C139.011 15.7064 138.775 15.661 138.474 15.6212C138.173 15.5814 137.897 15.5615 137.647 15.5615C137.113 15.5615 136.636 15.678 136.215 15.911C135.8 16.1382 135.471 16.4564 135.227 16.8655C134.988 17.2746 134.869 17.7462 134.869 18.2803V25.6865H131.238ZM146.415 25.9422C145.068 25.9422 143.909 25.6695 142.938 25.124C141.972 24.5729 141.227 23.7945 140.705 22.7888C140.182 21.7774 139.92 20.5814 139.92 19.2007C139.92 17.8541 140.182 16.6723 140.705 15.6553C141.227 14.6382 141.963 13.8456 142.912 13.2774C143.866 12.7093 144.986 12.4252 146.27 12.4252C147.134 12.4252 147.938 12.5644 148.682 12.8428C149.432 13.1155 150.085 13.5274 150.642 14.0786C151.205 14.6297 151.642 15.3229 151.955 16.1581C152.267 16.9877 152.423 17.9593 152.423 19.0729V20.07H141.369V17.82H149.006C149.006 17.2973 148.892 16.8343 148.665 16.4308C148.438 16.0274 148.122 15.7121 147.719 15.4848C147.321 15.2519 146.858 15.1354 146.33 15.1354C145.778 15.1354 145.29 15.2632 144.864 15.5189C144.443 15.7689 144.114 16.107 143.875 16.5331C143.636 16.9536 143.514 17.4223 143.509 17.9394V20.0786C143.509 20.7263 143.628 21.286 143.866 21.7575C144.111 22.2291 144.455 22.5928 144.898 22.8485C145.341 23.1041 145.866 23.232 146.474 23.232C146.878 23.232 147.247 23.1752 147.582 23.0615C147.918 22.9479 148.205 22.7774 148.443 22.5502C148.682 22.3229 148.864 22.0445 148.989 21.7149L152.347 21.9365C152.176 22.7433 151.827 23.4479 151.298 24.0502C150.776 24.6468 150.099 25.1127 149.27 25.4479C148.446 25.7774 147.494 25.9422 146.415 25.9422Z" fill="black"/>
<path d="M136.148 8.7611C135.757 8.7611 135.42 8.67824 135.138 8.51252C134.858 8.34514 134.643 8.11313 134.492 7.8165C134.343 7.51986 134.268 7.17847 134.268 6.79235C134.268 6.40125 134.344 6.05821 134.495 5.76323C134.647 5.46659 134.863 5.23541 135.143 5.06969C135.424 4.90231 135.757 4.81863 136.143 4.81863C136.476 4.81863 136.768 4.87911 137.018 5.00009C137.268 5.12106 137.466 5.29093 137.612 5.50968C137.758 5.72843 137.838 5.98529 137.853 6.28027H136.854C136.826 6.0897 136.751 5.9364 136.63 5.8204C136.511 5.70274 136.354 5.64391 136.16 5.64391C135.996 5.64391 135.853 5.68865 135.73 5.77814C135.609 5.86597 135.515 5.99441 135.447 6.16344C135.379 6.33248 135.345 6.53714 135.345 6.77743C135.345 7.02104 135.378 7.22819 135.444 7.39888C135.512 7.56957 135.607 7.69966 135.73 7.78915C135.853 7.87864 135.996 7.92338 136.16 7.92338C136.281 7.92338 136.39 7.89853 136.486 7.84881C136.584 7.79909 136.664 7.72701 136.727 7.63255C136.792 7.53643 136.834 7.42125 136.854 7.28702H137.853C137.836 7.57869 137.757 7.83555 137.614 8.05762C137.473 8.27802 137.279 8.45037 137.03 8.57466C136.782 8.69895 136.487 8.7611 136.148 8.7611ZM140.256 8.7611C139.87 8.7611 139.536 8.67907 139.254 8.515C138.974 8.34928 138.758 8.11893 138.606 7.82395C138.453 7.52731 138.377 7.18345 138.377 6.79235C138.377 6.39793 138.453 6.05324 138.606 5.75826C138.758 5.46162 138.974 5.23127 139.254 5.0672C139.536 4.90149 139.87 4.81863 140.256 4.81863C140.642 4.81863 140.975 4.90149 141.255 5.0672C141.537 5.23127 141.754 5.46162 141.907 5.75826C142.059 6.05324 142.135 6.39793 142.135 6.79235C142.135 7.18345 142.059 7.52731 141.907 7.82395C141.754 8.11893 141.537 8.34928 141.255 8.515C140.975 8.67907 140.642 8.7611 140.256 8.7611ZM140.261 7.94078C140.437 7.94078 140.583 7.89107 140.701 7.79164C140.819 7.69055 140.907 7.553 140.967 7.37899C141.028 7.20499 141.059 7.00695 141.059 6.78489C141.059 6.56283 141.028 6.36479 140.967 6.19078C140.907 6.01678 140.819 5.87923 140.701 5.77814C140.583 5.67705 140.437 5.62651 140.261 5.62651C140.084 5.62651 139.935 5.67705 139.814 5.77814C139.694 5.87923 139.604 6.01678 139.543 6.19078C139.483 6.36479 139.453 6.56283 139.453 6.78489C139.453 7.00695 139.483 7.20499 139.543 7.37899C139.604 7.553 139.694 7.69055 139.814 7.79164C139.935 7.89107 140.084 7.94078 140.261 7.94078ZM142.824 8.68652V4.86834H143.833V5.54199H143.878C143.957 5.31827 144.09 5.14178 144.276 5.01252C144.461 4.88326 144.683 4.81863 144.942 4.81863C145.204 4.81863 145.427 4.88408 145.611 5.015C145.794 5.14426 145.917 5.31993 145.978 5.54199H146.018C146.096 5.32324 146.237 5.14841 146.441 5.01749C146.646 4.88491 146.889 4.81863 147.169 4.81863C147.525 4.81863 147.815 4.93214 148.037 5.15918C148.26 5.38456 148.372 5.7044 148.372 6.1187V8.68652H147.316V6.3275C147.316 6.11538 147.259 5.95629 147.147 5.85023C147.034 5.74417 146.893 5.69114 146.724 5.69114C146.532 5.69114 146.382 5.75246 146.274 5.87509C146.167 5.99606 146.113 6.15598 146.113 6.35485V8.68652H145.086V6.30513C145.086 6.11787 145.032 5.96872 144.924 5.85769C144.818 5.74666 144.678 5.69114 144.504 5.69114C144.387 5.69114 144.281 5.72097 144.186 5.78063C144.093 5.83863 144.02 5.92066 143.965 6.02672C143.91 6.13113 143.883 6.25376 143.883 6.39462V8.68652H142.824Z" fill="#634C9F"/>
</svg>
