<svg width="20" height="20" viewBox="0 0 20 20" fill="none" xmlns="http://www.w3.org/2000/svg">
<g clip-path="url(#clip0_8595_10144)">
<path d="M10.1813 19.2998C10.8644 19.2998 11.4407 19.065 11.9102 18.5954C12.3798 18.1259 12.6146 17.5496 12.6146 16.8665H7.8121C7.8121 17.5496 8.03622 18.1259 8.48445 18.5954C8.93269 19.065 9.49831 19.2998 10.1813 19.2998ZM10.1813 2.39501L9.22084 2.5871C8.11092 2.80055 7.19311 3.35551 6.4674 4.25197C5.74169 5.14844 5.37884 6.15163 5.37884 7.26154C5.37884 7.73112 5.33615 8.35011 5.25077 9.11851C5.16539 10.0577 5.01598 10.9541 4.80254 11.8079C4.58909 12.8751 4.33296 13.7716 4.03414 14.4973H16.3285C16.0297 13.7716 15.7736 12.8751 15.5601 11.8079C15.3467 10.9541 15.1973 10.0577 15.1119 9.11851C15.0265 8.35011 14.9838 7.75246 14.9838 7.32557C14.9838 6.17297 14.621 5.14844 13.8953 4.25197C13.1696 3.35551 12.2517 2.80055 11.1418 2.5871L10.1813 2.39501ZM17.6732 14.4973C17.9294 15.0523 18.2282 15.4578 18.5697 15.7139H1.79297C2.13448 15.4578 2.4333 15.0523 2.68944 14.4973C3.15901 13.5581 3.54321 12.2134 3.84204 10.4632C4.05548 9.13985 4.1622 8.07263 4.1622 7.26154C4.1622 5.85281 4.62111 4.59348 5.53892 3.48357C6.45673 2.37366 7.59866 1.69064 8.9647 1.43451C8.9647 1.17837 9.01806 0.954256 9.12479 0.762156C9.23151 0.570055 9.38092 0.409973 9.57302 0.281906C9.76512 0.153839 9.96789 0.0898056 10.1813 0.0898056C10.3948 0.0898056 10.5976 0.153839 10.7897 0.281906C10.9818 0.409973 11.1312 0.570055 11.2379 0.762156C11.3446 0.954256 11.398 1.17837 11.398 1.43451C12.764 1.69064 13.9059 2.37366 14.8238 3.48357C15.7416 4.59348 16.2005 5.87415 16.2005 7.32557C16.2005 8.09397 16.3072 9.13985 16.5206 10.4632C16.8195 12.2134 17.2037 13.5581 17.6732 14.4973Z" fill="black" fill-opacity="0.85"/>
</g>
<defs>
<clipPath id="clip0_8595_10144">
<rect width="19.21" height="19.21" fill="white" transform="matrix(1 0 0 -1 0.578125 19.2998)"/>
</clipPath>
</defs>
</svg>
