<svg width="23" height="23" viewBox="0 0 23 23" fill="none" xmlns="http://www.w3.org/2000/svg">
<path d="M3.1412 1.15985C3.38564 1.15985 3.5812 1.23318 3.72786 1.37984L4.60786 2.25984L5.48786 1.37984C5.63453 1.23318 5.80564 1.15985 6.0012 1.15985C6.19675 1.15985 6.36786 1.23318 6.51453 1.37984L7.39453 2.25984L8.27453 1.37984C8.4212 1.23318 8.58009 1.15985 8.7512 1.15985C8.92231 1.15985 9.0812 1.23318 9.22786 1.37984L10.1079 2.25984L10.9879 1.37984C11.1345 1.23318 11.3056 1.15985 11.5012 1.15985C11.6968 1.15985 11.8679 1.23318 12.0145 1.37984L12.8945 2.25984L13.7745 1.37984C13.9212 1.23318 14.0801 1.15985 14.2512 1.15985C14.4223 1.15985 14.5812 1.23318 14.7279 1.37984L15.6079 2.25984L16.4879 1.37984C16.6345 1.23318 16.8056 1.15985 17.0012 1.15985C17.1968 1.15985 17.3679 1.23318 17.5145 1.37984L18.3945 2.25984L19.2745 1.37984C19.4212 1.23318 19.6168 1.17207 19.8612 1.19651C20.1056 1.22095 20.2768 1.3554 20.3745 1.59984L21.0345 2.91984C21.0834 3.01762 21.1079 3.1154 21.1079 3.21318V19.7132C21.1079 19.8598 21.0834 19.9821 21.0345 20.0798L20.3745 21.3998C20.2768 21.6443 20.1056 21.7787 19.8612 21.8032C19.6168 21.8276 19.4212 21.7665 19.2745 21.6198L18.3945 20.7398L17.5145 21.6198C17.3679 21.7665 17.1968 21.8398 17.0012 21.8398C16.8056 21.8398 16.6345 21.7665 16.4879 21.6198L15.6079 20.7398L14.7279 21.6198C14.5812 21.7665 14.4223 21.8398 14.2512 21.8398C14.0801 21.8398 13.9212 21.7665 13.7745 21.6198L12.8945 20.7398L12.0145 21.6198C11.8679 21.7665 11.6968 21.8398 11.5012 21.8398C11.3056 21.8398 11.1345 21.7665 10.9879 21.6198L10.1079 20.7398L9.22786 21.6198C9.0812 21.7665 8.92231 21.8398 8.7512 21.8398C8.58009 21.8398 8.4212 21.7665 8.27453 21.6198L7.39453 20.7398L6.51453 21.6198C6.36786 21.7665 6.19675 21.8398 6.0012 21.8398C5.80564 21.8398 5.63453 21.7665 5.48786 21.6198L4.60786 20.7398L3.72786 21.6198C3.5812 21.7665 3.38564 21.8276 3.1412 21.8032C2.89675 21.7787 2.72564 21.6443 2.62786 21.3998L1.96786 20.0798C1.91898 19.9821 1.89453 19.8598 1.89453 19.7132V3.21318C1.89453 3.1154 1.91898 3.01762 1.96786 2.91984L2.62786 1.59984C2.72564 1.3554 2.89675 1.20873 3.1412 1.15985ZM3.43453 3.06651L3.28786 3.43318V19.5665L3.43453 19.9332L4.16786 19.2732C4.26564 19.1265 4.41231 19.0532 4.60786 19.0532C4.80342 19.0532 4.97453 19.1265 5.1212 19.2732L6.0012 20.1532L6.8812 19.2732C7.02786 19.1265 7.19898 19.0532 7.39453 19.0532C7.59009 19.0532 7.73675 19.1265 7.83453 19.2732L8.78786 20.1532L9.66786 19.2732C9.76564 19.1265 9.91231 19.0532 10.1079 19.0532C10.3034 19.0532 10.4745 19.1265 10.6212 19.2732L11.5012 20.1532L12.3812 19.2732C12.5279 19.1265 12.699 19.0532 12.8945 19.0532C13.0901 19.0532 13.2368 19.1265 13.3345 19.2732L14.2879 20.1532L15.1679 19.2732C15.2656 19.1265 15.4123 19.0532 15.6079 19.0532C15.8034 19.0532 15.9745 19.1265 16.1212 19.2732L17.0012 20.1532L17.8812 19.2732C18.0279 19.1265 18.199 19.0532 18.3945 19.0532C18.5901 19.0532 18.7368 19.1265 18.8345 19.2732L19.5679 19.9332L19.7879 19.5665V3.43318L19.5679 3.06651L18.8345 3.72651C18.7368 3.87318 18.5901 3.94651 18.3945 3.94651C18.199 3.94651 18.0279 3.87318 17.8812 3.72651L17.0012 2.84651L16.1212 3.72651C15.9745 3.87318 15.8034 3.94651 15.6079 3.94651C15.4123 3.94651 15.2656 3.87318 15.1679 3.72651L14.2879 2.84651L13.3345 3.72651C13.2368 3.87318 13.0901 3.94651 12.8945 3.94651C12.699 3.94651 12.5279 3.87318 12.3812 3.72651L11.5012 2.84651L10.6212 3.72651C10.4745 3.87318 10.3034 3.94651 10.1079 3.94651C9.91231 3.94651 9.76564 3.87318 9.66786 3.72651L8.78786 2.84651L7.83453 3.72651C7.73675 3.87318 7.59009 3.94651 7.39453 3.94651C7.19898 3.94651 7.02786 3.87318 6.8812 3.72651L6.0012 2.84651L5.1212 3.72651C4.97453 3.87318 4.80342 3.94651 4.60786 3.94651C4.41231 3.94651 4.26564 3.87318 4.16786 3.72651L3.43453 3.06651ZM4.60786 6.65984C4.60786 6.46429 4.6812 6.3054 4.82786 6.18318C4.97453 6.06096 5.14564 5.99984 5.3412 5.99984H13.5545C13.7501 5.99984 13.9212 6.06096 14.0679 6.18318C14.2145 6.3054 14.2879 6.46429 14.2879 6.65984C14.2879 6.8554 14.2145 7.02651 14.0679 7.17318C13.9212 7.31984 13.7501 7.39318 13.5545 7.39318H5.3412C5.14564 7.39318 4.97453 7.31984 4.82786 7.17318C4.6812 7.02651 4.60786 6.8554 4.60786 6.65984ZM4.60786 9.44651C4.60786 9.25096 4.6812 9.07984 4.82786 8.93318C4.97453 8.78651 5.14564 8.71318 5.3412 8.71318H13.5545C13.7501 8.71318 13.9212 8.78651 14.0679 8.93318C14.2145 9.07984 14.2879 9.25096 14.2879 9.44651C14.2879 9.64207 14.2145 9.80096 14.0679 9.92318C13.9212 10.0454 13.7501 10.1065 13.5545 10.1065H5.3412C5.14564 10.1065 4.97453 10.0454 4.82786 9.92318C4.6812 9.80096 4.60786 9.64207 4.60786 9.44651ZM4.60786 12.1598C4.60786 11.9643 4.6812 11.8054 4.82786 11.6832C4.97453 11.561 5.14564 11.4998 5.3412 11.4998H13.5545C13.7501 11.4998 13.9212 11.561 14.0679 11.6832C14.2145 11.8054 14.2879 11.9643 14.2879 12.1598C14.2879 12.3554 14.2145 12.5265 14.0679 12.6732C13.9212 12.8198 13.7501 12.8932 13.5545 12.8932H5.3412C5.14564 12.8932 4.97453 12.8198 4.82786 12.6732C4.6812 12.5265 4.60786 12.3554 4.60786 12.1598ZM4.60786 14.9465C4.60786 14.751 4.6812 14.5798 4.82786 14.4332C4.97453 14.2865 5.14564 14.2132 5.3412 14.2132H13.5545C13.7501 14.2621 13.9212 14.3476 14.0679 14.4698C14.2145 14.5921 14.2879 14.751 14.2879 14.9465C14.2879 15.1421 14.2145 15.301 14.0679 15.4232C13.9212 15.5454 13.7501 15.6065 13.5545 15.6065H5.3412C5.14564 15.6065 4.97453 15.5454 4.82786 15.4232C4.6812 15.301 4.60786 15.1421 4.60786 14.9465ZM15.6079 6.65984C15.6079 6.46429 15.6812 6.3054 15.8279 6.18318C15.9745 6.06096 16.1456 5.99984 16.3412 5.99984H17.6612C17.8568 5.99984 18.0279 6.06096 18.1745 6.18318C18.3212 6.3054 18.3945 6.46429 18.3945 6.65984C18.3945 6.8554 18.3212 7.02651 18.1745 7.17318C18.0279 7.31984 17.8568 7.39318 17.6612 7.39318H16.3412C16.1456 7.39318 15.9745 7.31984 15.8279 7.17318C15.6812 7.02651 15.6079 6.8554 15.6079 6.65984ZM15.6079 9.44651C15.6079 9.25096 15.6812 9.07984 15.8279 8.93318C15.9745 8.78651 16.1456 8.71318 16.3412 8.71318H17.6612C17.8568 8.71318 18.0279 8.78651 18.1745 8.93318C18.3212 9.07984 18.3945 9.25096 18.3945 9.44651C18.3945 9.64207 18.3212 9.80096 18.1745 9.92318C18.0279 10.0454 17.8568 10.1065 17.6612 10.1065H16.3412C16.1456 10.1065 15.9745 10.0454 15.8279 9.92318C15.6812 9.80096 15.6079 9.64207 15.6079 9.44651ZM15.6079 12.1598C15.6079 11.9643 15.6812 11.8054 15.8279 11.6832C15.9745 11.561 16.1456 11.4998 16.3412 11.4998H17.6612C17.8568 11.4998 18.0279 11.561 18.1745 11.6832C18.3212 11.8054 18.3945 11.9643 18.3945 12.1598C18.3945 12.3554 18.3212 12.5265 18.1745 12.6732C18.0279 12.8198 17.8568 12.8932 17.6612 12.8932H16.3412C16.1456 12.8932 15.9745 12.8198 15.8279 12.6732C15.6812 12.5265 15.6079 12.3554 15.6079 12.1598ZM15.6079 14.9465C15.6079 14.751 15.6812 14.5798 15.8279 14.4332C15.9745 14.2865 16.1456 14.2132 16.3412 14.2132H17.6612C17.8568 14.2621 18.0279 14.3476 18.1745 14.4698C18.3212 14.5921 18.3945 14.751 18.3945 14.9465C18.3945 15.1421 18.3212 15.301 18.1745 15.4232C18.0279 15.5454 17.8568 15.6065 17.6612 15.6065H16.3412C16.1456 15.6065 15.9745 15.5454 15.8279 15.4232C15.6812 15.301 15.6079 15.1421 15.6079 14.9465Z" fill="black"/>
</svg>
