<svg width="23" height="23" viewBox="0 0 23 23" fill="none" xmlns="http://www.w3.org/2000/svg">
<g clip-path="url(#clip0_8595_10228)">
<path d="M0.5 5.3396C0.5 4.75293 0.695556 4.25182 1.08667 3.83626C1.47778 3.42071 1.96667 3.23738 2.55333 3.28626H14.9467C15.5333 3.23738 16.0222 3.42071 16.4133 3.83626C16.8044 4.25182 17 4.75293 17 5.3396V7.39293H18.3933C19.0778 7.39293 19.6156 7.63737 20.0067 8.12626L22.06 10.6929C22.3533 11.084 22.5 11.524 22.5 12.0129V14.9463C22.5 15.5329 22.3044 16.0218 21.9133 16.4129C21.5222 16.804 21.0333 16.9996 20.4467 16.9996H19.7867C19.7867 17.7818 19.5178 18.4296 18.98 18.9429C18.4422 19.4563 17.7822 19.7129 17 19.7129C16.2178 19.7129 15.57 19.4563 15.0567 18.9429C14.5433 18.4296 14.2867 17.7818 14.2867 16.9996H7.39333C7.39333 17.4885 7.25889 17.9529 6.99 18.3929C6.72111 18.8329 6.37889 19.1752 5.96333 19.4196C5.54778 19.664 5.08333 19.774 4.57 19.7496C4.05667 19.7252 3.59222 19.5907 3.17667 19.3463C2.76111 19.1018 2.43111 18.7596 2.18667 18.3196C1.94222 17.8796 1.84444 17.3907 1.89333 16.8529C1.45333 16.7063 1.11111 16.4618 0.866667 16.1196C0.622222 15.7774 0.5 15.3863 0.5 14.9463V5.3396ZM2.26 15.5329C2.50444 15.1418 2.84667 14.824 3.28667 14.5796C3.72667 14.3352 4.19111 14.2252 4.68 14.2496C5.16889 14.274 5.62111 14.4085 6.03667 14.6529C6.45222 14.8974 6.78222 15.2152 7.02667 15.6063H14.6533C14.8978 15.2152 15.2156 14.8974 15.6067 14.6529V5.3396C15.6067 5.14404 15.5456 4.97293 15.4233 4.82626C15.3011 4.6796 15.1422 4.60626 14.9467 4.60626H2.55333C2.35778 4.60626 2.19889 4.6796 2.07667 4.82626C1.95444 4.97293 1.89333 5.14404 1.89333 5.3396V14.9463C1.89333 15.2396 2.01556 15.4352 2.26 15.5329ZM17 14.2129C17.4889 14.2618 17.9411 14.4085 18.3567 14.6529C18.7722 14.8974 19.1022 15.2152 19.3467 15.6063H20.4467C20.6422 15.6063 20.8011 15.5452 20.9233 15.4229C21.0456 15.3007 21.1067 15.1418 21.1067 14.9463V12.0129C21.1067 11.8174 21.0578 11.6707 20.96 11.5729L18.9067 9.00626C18.8089 8.8596 18.6378 8.78626 18.3933 8.78626H17V14.2129ZM4.60667 15.6063C4.21556 15.6063 3.89778 15.7407 3.65333 16.0096C3.40889 16.2785 3.28667 16.6085 3.28667 16.9996C3.28667 17.3907 3.40889 17.7207 3.65333 17.9896C3.89778 18.2585 4.21556 18.3929 4.60667 18.3929C4.99778 18.3929 5.32778 18.2585 5.59667 17.9896C5.86556 17.7207 6 17.3907 6 16.9996C6 16.6085 5.86556 16.2785 5.59667 16.0096C5.32778 15.7407 4.99778 15.6063 4.60667 15.6063ZM17 15.6063C16.6089 15.6063 16.2789 15.7407 16.01 16.0096C15.7411 16.2785 15.6067 16.6085 15.6067 16.9996C15.6067 17.3907 15.7411 17.7207 16.01 17.9896C16.2789 18.2585 16.6089 18.3929 17 18.3929C17.3911 18.3929 17.7211 18.2585 17.99 17.9896C18.2589 17.7207 18.3933 17.3907 18.3933 16.9996C18.3933 16.6085 18.2589 16.2785 17.99 16.0096C17.7211 15.7407 17.3911 15.6063 17 15.6063Z" fill="black"/>
</g>
<defs>
<clipPath id="clip0_8595_10228">
<rect width="22" height="22" fill="white" transform="matrix(1 0 0 -1 0.5 22.5)"/>
</clipPath>
</defs>
</svg>
