<svg width="14" height="15" viewBox="0 0 14 15" fill="none" xmlns="http://www.w3.org/2000/svg">
<g clip-path="url(#clip0_8595_10132)">
<path d="M10.2658 9.30822C10.8569 8.53044 11.2147 7.66711 11.3392 6.71822C11.4636 5.76933 11.3547 4.84377 11.0125 3.94155C10.6703 3.03933 10.1258 2.26933 9.37915 1.63155C8.63249 0.993772 7.79249 0.573771 6.85915 0.37155C5.92582 0.169327 5.00026 0.208216 4.08249 0.488216C3.16471 0.768216 2.35582 1.25044 1.65582 1.93488C0.955819 2.61933 0.473597 3.42044 0.209153 4.33822C-0.0552917 5.25599 -0.0864028 6.18155 0.115819 7.11488C0.318042 8.04822 0.738042 8.88822 1.37582 9.63488C2.0136 10.3815 2.7836 10.926 3.68582 11.2682C4.58804 11.6104 5.5136 11.7193 6.46249 11.5949C7.41138 11.4704 8.27471 11.1127 9.05249 10.5215L12.5058 14.0215C12.6614 14.1771 12.8636 14.2549 13.1125 14.2549C13.3614 14.2549 13.5714 14.1693 13.7425 13.9982C13.9136 13.8271 13.9992 13.6171 13.9992 13.3682C13.9992 13.1193 13.9214 12.9171 13.7658 12.7615L10.2658 9.30822ZM10.4992 5.94822C10.4992 6.81933 10.2814 7.62044 9.84582 8.35155C9.41026 9.08266 8.82693 9.66599 8.09582 10.1015C7.36471 10.5371 6.5636 10.7549 5.69249 10.7549C4.82137 10.7549 4.01249 10.5371 3.26582 10.1015C2.51915 9.66599 1.93582 9.08266 1.51582 8.35155C1.09582 7.62044 0.885819 6.81933 0.885819 5.94822C0.885819 5.0771 1.09582 4.26822 1.51582 3.52155C1.93582 2.77488 2.51915 2.19155 3.26582 1.77155C4.01249 1.35155 4.82137 1.14155 5.69249 1.14155C6.5636 1.14155 7.36471 1.35155 8.09582 1.77155C8.82693 2.19155 9.41026 2.77488 9.84582 3.52155C10.2814 4.26822 10.4992 5.0771 10.4992 5.94822Z" fill="black"/>
</g>
<defs>
<clipPath id="clip0_8595_10132">
<rect width="14" height="14" fill="white" transform="matrix(1 0 0 -1 0 14.2549)"/>
</clipPath>
</defs>
</svg>
