<svg width="23" height="23" viewBox="0 0 23 23" fill="none" xmlns="http://www.w3.org/2000/svg">
<g clip-path="url(#clip0_8595_10307)">
<path d="M11.5 21.1067C9.74 21.1067 8.12667 20.6789 6.66 19.8233C5.19333 18.9678 4.03222 17.8067 3.17667 16.34C2.32111 14.8733 1.89333 13.26 1.89333 11.5C1.89333 9.74 2.32111 8.12667 3.17667 6.66C4.03222 5.19333 5.19333 4.03222 6.66 3.17667C8.12667 2.32111 9.74 1.89333 11.5 1.89333C13.26 1.89333 14.8733 2.32111 16.34 3.17667C17.8067 4.03222 18.9678 5.19333 19.8233 6.66C20.6789 8.12667 21.1067 9.74 21.1067 11.5C21.1067 13.26 20.6789 14.8733 19.8233 16.34C18.9678 17.8067 17.8067 18.9678 16.34 19.8233C14.8733 20.6789 13.26 21.1067 11.5 21.1067ZM11.5 22.5C13.5044 22.5 15.35 22.0111 17.0367 21.0333C18.7233 20.0556 20.0556 18.7233 21.0333 17.0367C22.0111 15.35 22.5 13.5044 22.5 11.5C22.5 9.49556 22.0111 7.65 21.0333 5.96333C20.0556 4.27667 18.7233 2.94444 17.0367 1.96667C15.35 0.98889 13.5044 0.5 11.5 0.5C9.49555 0.5 7.65 0.98889 5.96333 1.96667C4.27667 2.94444 2.94444 4.27667 1.96667 5.96333C0.988889 7.65 0.5 9.49556 0.5 11.5C0.5 13.5044 0.988889 15.35 1.96667 17.0367C2.94444 18.7233 4.27667 20.0556 5.96333 21.0333C7.65 22.0111 9.49555 22.5 11.5 22.5ZM15.6067 7.32C15.5578 7.32 15.5333 7.34445 15.5333 7.39333L10.7667 13.48L7.90667 10.5467C7.71111 10.3511 7.46667 10.2656 7.17333 10.29C6.88 10.3144 6.63556 10.4244 6.44 10.62C6.24444 10.8156 6.14667 11.0478 6.14667 11.3167C6.14667 11.5856 6.24444 11.8178 6.44 12.0133L10.1067 15.68C10.3022 15.8756 10.5467 15.9733 10.84 15.9733C11.1333 15.9733 11.3778 15.8511 11.5733 15.6067L17.0733 8.78667C17.2689 8.59111 17.3667 8.34667 17.3667 8.05333C17.3667 7.76 17.2567 7.51556 17.0367 7.32C16.8167 7.12444 16.5722 7.02667 16.3033 7.02667C16.0344 7.02667 15.8022 7.12444 15.6067 7.32Z" fill="black"/>
</g>
<defs>
<clipPath id="clip0_8595_10307">
<rect width="22" height="22" fill="white" transform="matrix(1 0 0 -1 0.5 22.5)"/>
</clipPath>
</defs>
</svg>
