<svg width="23" height="23" viewBox="0 0 23 23" fill="none" xmlns="http://www.w3.org/2000/svg">
<g clip-path="url(#clip0_8595_10337)">
<path d="M15.6067 8.71333C15.6067 9.88667 15.2033 10.8767 14.3967 11.6833C13.59 12.49 12.6244 12.8933 11.5 12.8933C10.3756 12.8933 9.41 12.49 8.60333 11.6833C7.79667 10.8767 7.39333 9.89889 7.39333 8.75C7.39333 7.60111 7.79667 6.62333 8.60333 5.81667C9.41 5.01 10.3756 4.60667 11.5 4.60667C12.6244 4.60667 13.59 5.01 14.3967 5.81667C15.2033 6.62333 15.6067 7.58889 15.6067 8.71333ZM0.5 11.5C0.5 9.49556 0.988889 7.65 1.96667 5.96333C2.94444 4.27667 4.27667 2.94444 5.96333 1.96667C7.65 0.98889 9.49555 0.5 11.5 0.5C13.5044 0.5 15.35 0.98889 17.0367 1.96667C18.7233 2.94444 20.0556 4.27667 21.0333 5.96333C22.0111 7.65 22.5 9.49556 22.5 11.5C22.5 13.5044 22.0111 15.35 21.0333 17.0367C20.0556 18.7233 18.7233 20.0556 17.0367 21.0333C15.35 22.0111 13.5044 22.5 11.5 22.5C9.49555 22.5 7.65 22.0111 5.96333 21.0333C4.27667 20.0556 2.94444 18.7233 1.96667 17.0367C0.988889 15.35 0.5 13.5044 0.5 11.5ZM11.5 1.89333C9.64222 1.89333 7.93111 2.38222 6.36667 3.36C4.80222 4.33778 3.61667 5.65778 2.81 7.32C2.00333 8.98222 1.71 10.73 1.93 12.5633C2.15 14.3967 2.82222 16.0467 3.94667 17.5133C4.53333 16.5844 5.36444 15.8511 6.44 15.3133C7.80889 14.6289 9.49555 14.2744 11.5 14.25C13.5044 14.2256 15.1911 14.58 16.56 15.3133C17.6356 15.8511 18.4667 16.5844 19.0533 17.5133C20.1778 16.0467 20.85 14.3967 21.07 12.5633C21.29 10.73 20.9967 8.98222 20.19 7.32C19.3833 5.65778 18.1978 4.33778 16.6333 3.36C15.0689 2.38222 13.3578 1.89333 11.5 1.89333Z" fill="black"/>
</g>
<defs>
<clipPath id="clip0_8595_10337">
<rect width="22" height="22" fill="white" transform="matrix(1 0 0 -1 0.5 22.5)"/>
</clipPath>
</defs>
</svg>
